<?xml version="1.0" encoding="UTF-8"?><svg id="a" xmlns="http://www.w3.org/2000/svg" viewBox="0 0 238 268"><defs><style>.b{fill:#1d1d1b;}</style></defs><path class="b" d="M114,97c-32.03,0-58,25.97-58,58s25.97,58,58,58,58-25.97,58-58-25.97-58-58-58Zm0,95c-20.43,0-37-16.57-37-37s16.57-37,37-37,37,16.57,37,37-16.57,37-37,37Z"/><path class="b" d="M161.85,40H66.15C29.62,40,0,69.62,0,106.15v95.71c0,36.53,29.62,66.15,66.15,66.15h95.71c36.53,0,66.15-29.62,66.15-66.15V106.15c0-36.53-29.62-66.15-66.15-66.15Zm43.15,163.47c0,22.94-18.59,41.53-41.53,41.53H64.53c-22.94,0-41.53-18.59-41.53-41.53V104.53c0-22.94,18.59-41.53,41.53-41.53h98.94c22.94,0,41.53,18.59,41.53,41.53v98.94Z"/><circle class="b" cx="174" cy="94" r="14"/></svg>