<?xml version="1.0" encoding="utf-8"?>
<!-- Generator: Adobe Illustrator 26.2.0, SVG Export Plug-In . SVG Version: 6.00 Build 0)  -->
<svg version="1.1" id="a" xmlns="http://www.w3.org/2000/svg" xmlns:xlink="http://www.w3.org/1999/xlink" x="0px" y="0px"
	 viewBox="0 0 330.4 369.3" style="enable-background:new 0 0 330.4 369.3;" xml:space="preserve">
<style type="text/css">
	.st0{fill:#EFEFEF;}
</style>
<path class="st0" d="M325.5,327.6L222.4,199.5c16.1-20.9,25.6-47.1,25.6-75.5C248,55.5,192.5,0,124,0S0,55.5,0,124s55.5,124,124,124
	c20.7,0,40.3-5.1,57.5-14.1l102.4,127.2c7.6,9.4,21.4,10.9,30.9,3.3l7.5-6C331.6,350.8,333.1,337,325.5,327.6L325.5,327.6z M124,216
	c-50.8,0-92-41.2-92-92s41.2-92,92-92s92,41.2,92,92S174.8,216,124,216z"/>
</svg>
