<?xml version="1.0" encoding="UTF-8"?><svg id="a" xmlns="http://www.w3.org/2000/svg" viewBox="0 0 335 337"><defs><style>.b{fill:#1d1d1b;}</style></defs><path class="b" d="M304,59c-17,6-28,9-36,10,9-3,27-24,28-34-12.07,5.63-31.27,13.21-42.99,14.38-11.6-11.24-26.86-19.11-42.01-19.38-27.78-.5-62,24.39-62,62,0,4.96,.61,9.79,1.73,14.42C79.68,99.8,45.19,67.12,21,41c-12.01,13.15-15,62,20,83-7,2-21-4-29-7-3.86,5.23,8,54,50,62-4,1-9,1-28,1,15,38,45,42,57,44-4,8-56,31-91,25,27.99,33.99,271.82,77.96,273-156.74,24.29-21.22,27.11-26.44,31-33.26Z"/></svg>